<?xml version="1.0" standalone="no"?>
<!DOCTYPE svg PUBLIC "-//W3C//DTD SVG 20010904//EN" "http://www.w3.org/TR/2001/REC-SVG-20010904/DTD/svg10.dtd">
<!-- Created using Krita: https://krita.org -->
<svg xmlns="http://www.w3.org/2000/svg" 
    xmlns:xlink="http://www.w3.org/1999/xlink"
    xmlns:krita="http://krita.org/namespaces/svg/krita"
    xmlns:sodipodi="http://sodipodi.sourceforge.net/DTD/sodipodi-0.dtd"
    width="121.68pt"
    height="139.68pt"
    viewBox="0 0 121.68 139.68">
<defs/>
<path id="shape0" transform="matrix(0.72 0 0 0.72 46.2134185977307 31.3194400774107)" fill="#fffacd" stroke="#000000" stroke-opacity="0" stroke-width="0" stroke-linecap="square" stroke-linejoin="bevel" d="M1.8147 0.600778C-0.285304 0.300778 -0.385304 0.200778 0.614696 0.100778C2.5147 -0.199222 6.9147 0.200778 10.0147 0.900778C17.2147 2.60078 23.7147 7.00078 30.6147 14.7008L32.4147 16.8008L35.0147 16.4008C46.1147 14.6008 57.5147 16.0008 67.0147 20.4008C69.6147 21.6008 73.7147 24.0008 74.2147 24.6008C74.4147 24.8008 74.7147 26.1008 74.9147 27.4008C75.6147 32.1008 75.3147 35.6008 73.8147 38.3008C73.0147 39.8008 73.0147 40.2008 73.5147 41.5008C73.9147 42.5008 75.1147 43.2008 76.2147 43.2008C78.6147 43.2008 81.1147 39.4008 82.3147 34.1008L82.8147 32.0008L83.7147 33.0008C88.8147 38.7008 92.8147 46.6008 93.4147 52.2008L93.6147 53.7008L92.7147 52.4008C91.2147 50.1008 89.8147 48.6008 87.9147 47.3008C84.5147 45.0008 80.9147 44.3008 71.4147 43.8008C62.8147 43.3008 57.9147 42.6008 53.1147 41.0008C44.9147 38.3008 40.7147 34.8008 31.0147 21.9008C26.7147 16.2008 24.0147 13.1008 21.3147 10.5008C15.4147 4.80078 9.5147 1.80078 1.8147 0.600778Z"/><path id="shape1" transform="matrix(0.72 0 0 0.72 91.4358085288751 33.48)" fill="#fffacd" stroke="#000000" stroke-opacity="0" stroke-width="0" stroke-linecap="square" stroke-linejoin="bevel" d="M13.5058 10.3C13.7058 6.5 14.2058 4 15.3058 1.7C15.7058 0.8 16.1058 0 16.2058 0C16.3058 0 16.1058 0.7 15.8058 1.5C15.0058 3.7 14.9058 6.8 15.4058 10.3C16.1058 14.8 16.4058 15.4 21.2058 20.3C23.4058 22.6 26.0058 25.5 27.0058 26.7L28.7058 28.9L27.0058 27.3C24.9058 25.3 20.1058 21.5 19.0058 21C18.3058 20.6 18.2058 20.6 17.7058 21.1C17.3058 21.5 17.2058 22.1 17.2058 25C17.1058 29.5 16.5058 32.3 15.0058 35.2C14.2058 36.7 14.1058 36.4 14.8058 34.7C15.3058 33.4 15.4058 32.8 15.4058 28.5C15.4058 19.8 14.4058 17.7 8.30582 14.2C6.80582 13.3 4.20582 12 2.70582 11.3C1.10582 10.6 -0.0941785 10 0.00582149 10C0.205821 9.8 6.10582 11.5 8.40582 12.5C11.9058 13.9 12.5058 14 12.9058 13.9C13.2058 13.6 13.4058 12.8 13.5058 10.3Z"/><path id="shape2" transform="matrix(0.72 0 0 0.72 45.876079086345 34.632)" fill="#fffacd" stroke="#000000" stroke-opacity="0" stroke-width="0" stroke-linecap="square" stroke-linejoin="bevel" d="M6.38322 23.6C2.18322 17.8 -0.516777 8.8 0.0832235 2.1L0.283223 0L1.28322 0.2C3.08322 0.5 6.18322 1.7 7.68322 2.6C11.6832 5 13.4832 8.3 15.1832 16.5C15.6832 18.9 16.3832 21.7 16.6832 22.6C17.1832 24.1 19.0832 27.6 20.6832 29.8C21.7832 31.4 21.0832 32.2 18.5832 32C14.7832 31.6 9.68322 28.1 6.38322 23.6Z"/><path id="shape3" transform="matrix(0.72 0 0 0.72 78.192 61.56)" fill="#fffacd" stroke="#000000" stroke-opacity="0" stroke-width="0" stroke-linecap="square" stroke-linejoin="bevel" d="M26.8 29.7C7 21.7 0 14.8 0 3.1C0 1.4 0.1 0 0.1 0C0.2 0 0.9 0.6 1.8 1.3C5.8 4.5 10.3 5.9 22.8 7.7C30.1 8.8 34.3 9.6 38.1 10.9C50.2 14.9 57.7 23.1 59.5 34.2C60 37.4 59.7 43.5 58.9 46.7C58.2 49.2 56.2 53.8 55.7 53.9C55.6 53.9 55.4 53.4 55.4 52.6C55.2 48.4 53.1 44.4 49.6 41.3C45.4 37.7 40 35 26.8 29.7Z"/><path id="shape4" transform="matrix(0.72 0 0 0.72 56.8013742315482 81.216)" fill="#fffacd" stroke="#000000" stroke-opacity="0" stroke-width="0" stroke-linecap="square" stroke-linejoin="bevel" d="M42.5092 5.7C42.3092 4.2 41.8092 2.3 41.5092 1.5L41.0092 0L41.9092 1.1C43.2092 2.6 44.2092 4.4 45.1092 6.9C45.8092 8.8 45.8092 9.4 45.8092 12.5C45.8092 15.5 45.7092 16.2 45.1092 17.9C44.1092 20.6 42.9092 22.5 40.9092 24.6C37.3092 28.3 32.6092 30.3 25.9092 31.2C24.7092 31.3 21.3092 31.6 18.3092 31.8C10.8092 32.2 5.8092 33 1.3092 34.6C0.709202 34.8 0.109202 35 0.00920246 34.9C-0.190798 34.7 2.9092 32.9 5.4092 31.7C8.9092 30 12.5092 29.1 20.4092 27.7C24.3092 27.1 28.3092 26.3 29.3092 25.9C39.2092 22.8 44.1092 15.1 42.5092 5.7Z"/><path id="shape5" transform="matrix(0.72 0 0 0.72 92.1348 84.528)" fill="#fffacd" stroke="#000000" stroke-opacity="0" stroke-width="0" stroke-linecap="square" stroke-linejoin="bevel" d="M2.535 17.2C-0.065 11.5 -0.665 6.1 0.735 1C0.935 0.5 1.135 0 1.335 0C1.535 0 2.135 0.3 2.735 0.7C3.935 1.5 6.435 2.9 12.835 6.4C20.935 10.8 25.535 14.2 28.735 18.1C31.535 21.5 33.235 25.4 34.035 30.2C34.535 32.9 34.235 39.4 33.535 42.1C31.335 50.6 26.335 57.4 19.035 61.3C17.935 61.9 17.035 62.3 16.935 62.3C16.835 62.3 17.235 61.3 17.835 60.1C20.235 55 20.535 50.1 18.735 44.6C17.635 41.2 15.335 37.1 10.735 30.2C5.235 22.2 3.935 20.1 2.535 17.2Z"/><path id="shape6" transform="matrix(0.72 0 0 0.72 38.808 110.057063019825)" fill="#fffacd" stroke="#000000" stroke-opacity="0" stroke-width="0" stroke-linecap="square" stroke-linejoin="bevel" d="M2.1 12.343C9.5 6.14297 18.6 1.74297 27 0.342968C30.6 -0.257032 36.6 -0.057032 39.9 0.842968C45.2 2.24297 50 5.24297 52.5 8.94297C54.9 12.543 56 15.643 57.1 22.543C57.5 25.243 58 28.043 58.1 28.643C58.9 32.243 60.5 35.043 62.5 36.543C65.6 38.843 71 38.943 76.3 36.943C77.2 36.643 78 36.343 78 36.443C78.2 36.643 75.5 38.443 73.7 39.343C71.2 40.643 69.2 41.043 66.5 41.043C61.7 41.043 57.6 38.543 54.3 33.543C53.6 32.543 52.2 29.643 51 26.943C47.5 18.843 45.7 16.443 41.6 13.743C38 11.443 33.4 10.943 29.9 12.643C25.3 14.843 24.1 20.743 27.3 24.343C28.6 25.843 31 27.043 33 27.343C36.7 27.843 39.9 24.943 39.9 21.243C39.9 18.843 39 17.443 36.6 16.343C33.4 14.943 29.9 16.543 30 19.643C30 20.943 30.6 21.743 31.9 22.343C32.7 22.743 32.7 22.743 32.1 22.643C29.2 22.043 28.5 18.443 30.8 16.143C33.6 13.343 39.5 14.543 41.5 18.443C42.3 20.043 42.4 23.243 41.7 25.243C40 29.643 35.2 31.943 30.3 30.643C27 29.743 25.6 28.843 21.6 24.743C14.6 17.543 11.9 16.143 1.9 14.643L0 14.343Z"/><path id="shape7" transform="matrix(0.72 0 0 0.72 -0.00320259433861821 0)" fill="#fffacd" fill-rule="evenodd" stroke="#000000" stroke-opacity="0" stroke-width="0" stroke-linecap="square" stroke-linejoin="bevel" d="M3.40445 4.3C26.7044 32.6 62.6044 76.6 64.4044 79C65.9044 81 65.3044 82.9 62.8044 84.3C61.4044 85.1 58.5044 85.9 57.1044 85.9C55.5044 85.9 53.6044 85.1 52.3044 83.8C51.4044 82.9 47.5044 77.2 38.7044 63.5C32.0044 53 26.3044 44.3 26.2044 44.2C25.8044 44 25.8044 44 38.0044 65.8C45.7044 79.5 48.2044 84.4 48.2044 85C48.2044 86.3 47.8044 87 46.2044 88.8C43.5044 91.8 42.3044 95.2 41.4044 102.3C40.4044 110.2 37.7044 115.8 30.0044 125.3C25.5044 130.9 24.8044 131.9 23.7044 134.2C22.3044 137 21.9044 138.6 21.7044 142.2C21.5044 146 21.9044 148.4 23.0044 152C24.0044 155.2 25.1044 157.3 27.8044 161.4C30.1044 165 31.5044 167.7 31.5044 168.7C31.5044 169.5 31.7044 169.5 35.3044 168.7C43.9044 166.7 51.0044 163.3 54.9044 159.1C57.3044 156.5 57.9044 155.1 57.9044 151.5C57.9044 149.2 57.8044 148.7 57.2044 147.3C56.2044 145.1 54.3044 143.3 50.2044 140.5C44.8044 136.8 42.5044 133.8 41.9044 129.8C41.4044 126.4 42.0044 124.1 45.0044 117.8C48.1044 111.3 48.9044 108.6 49.4044 102C49.7044 97.8 50.2044 96.1 51.4044 94.8C52.7044 93.4 53.8044 92.9 56.9044 92.5C62.0044 91.8 65.3044 90.5 67.9044 88C70.2044 85.9 71.2044 83.8 71.3044 80.7L71.4044 78.4L70.1044 77C65.4044 71.6 0.304448 0 0.00444805 0C-0.095552 0 1.50445 1.9 3.40445 4.3ZM34.1044 146.5C35.2044 144.6 34.6044 142.2 32.8044 141C31.1044 139.9 28.5044 140.4 28.5044 141.9C28.5044 142.3 28.7044 142.7 29.3044 142.9C30.2044 143.4 30.3044 143.9 29.6044 145C28.9044 146.1 28.9044 147.1 29.8044 147.8C31.2044 148.9 33.1044 148.3 34.1044 146.5Z"/><path id="shape8" transform="matrix(0.72 0 0 0.72 49.6772156183391 67.432)" fill="#fffacd" fill-rule="evenodd" stroke="#000000" stroke-opacity="0" stroke-width="0" stroke-linecap="square" stroke-linejoin="bevel" d="M5.60387 0.244444C3.20387 0.944444 0.903867 3.54444 0.203867 6.14444C-0.196133 7.74444 0.0038672 10.6444 0.703867 11.5444C1.80387 12.9444 2.80387 13.3444 5.60387 13.3444C11.1039 13.3444 15.8039 10.9444 16.3039 8.04444C16.8039 5.64444 14.7039 2.34444 11.8039 0.844444C10.3039 0.0444444 7.20387 -0.255556 5.60387 0.244444ZM12.0039 5.24444C12.8039 4.04444 12.5039 2.74444 11.0039 1.84444C8.30387 0.144444 4.20387 1.54444 4.20387 4.14444C4.20387 5.44444 6.30387 6.84444 8.30387 6.84444C9.60387 6.84444 11.4039 6.04444 12.0039 5.24444Z"/>
</svg>
