<?xml version="1.0" encoding="UTF-8" standalone="no"?>
<!-- Generator: Adobe Illustrator 21.0.0, SVG Export Plug-In . SVG Version: 6.00 Build 0)  -->

<svg
   version="1.1"
   id="Capa_1"
   x="0px"
   y="0px"
   viewBox="0 0 512 512"
   style="enable-background:new 0 0 512 512;"
   xml:space="preserve"
   width="512"
   height="512"
   sodipodi:docname="mushroom.svg"
   inkscape:version="1.1 (ce6663b3b7, 2021-05-25)"
   xmlns:inkscape="http://www.inkscape.org/namespaces/inkscape"
   xmlns:sodipodi="http://sodipodi.sourceforge.net/DTD/sodipodi-0.dtd"
   xmlns="http://www.w3.org/2000/svg"
   xmlns:svg="http://www.w3.org/2000/svg"><defs
   id="defs27" /><sodipodi:namedview
   id="namedview25"
   pagecolor="#ffffff"
   bordercolor="#666666"
   borderopacity="1.0"
   inkscape:pageshadow="2"
   inkscape:pageopacity="0.0"
   inkscape:pagecheckerboard="0"
   showgrid="false"
   inkscape:zoom="1.6484375"
   inkscape:cx="134.06635"
   inkscape:cy="256.30332"
   inkscape:window-width="1862"
   inkscape:window-height="1016"
   inkscape:window-x="1066"
   inkscape:window-y="2187"
   inkscape:window-maximized="1"
   inkscape:current-layer="g22" />
<g
   id="g22">
	<path
   d="M182.416,263.842c3.384-1.041,6.723-2.266,9.996-3.688c3.799-1.651,5.541-6.068,3.89-9.868   c-1.65-3.799-6.067-5.541-9.868-3.89c-1.327,0.577-2.667,1.113-4.018,1.615v-22.939c35.838-1.92,70.773-7.424,104.046-16.022   c12.643-3.267,21.472-14.669,21.472-27.727c0-26.291-14.208-50.679-37.078-63.646c-40.81-23.14-47.572-63.355-48.104-64.458   c-8.128-31.334-36.413-53.219-68.785-53.219c-32.372,0-60.657,21.884-68.785,53.219c-0.543,1.681-2.781,13.532-10.912,27.586   c-2.074,3.585-0.85,8.173,2.736,10.248c3.585,2.074,8.173,0.85,10.248-2.736c9.029-15.606,12.078-30.191,12.448-31.332   c6.412-24.72,28.727-41.985,54.266-41.985s47.853,17.265,54.265,41.985l0.687,2.648c7.763,29.929,27.642,55.84,54.539,71.091   c18.182,10.309,29.476,29.697,29.476,50.598c0,6.218-4.205,11.647-10.225,13.204c-14.207,3.672-28.554,6.708-42.989,9.141v-18.096   c0-4.142-3.358-7.5-7.5-7.5s-7.5,3.358-7.5,7.5v20.4c-20.975,2.901-42.104,4.513-63.252,4.82v-19.99c0-4.142-3.358-7.5-7.5-7.5   s-7.5,3.358-7.5,7.5v19.99c-21.148-0.307-42.278-1.918-63.253-4.82v-20.4c0-4.142-3.358-7.5-7.5-7.5s-7.5,3.358-7.5,7.5v18.096   c-14.435-2.433-28.782-5.47-42.989-9.141C19.205,192.971,15,187.542,15,181.324c0-20.901,11.295-40.29,29.477-50.599   c6.737-3.82,13.108-8.34,18.934-13.432c3.119-2.726,3.438-7.464,0.711-10.583c-2.727-3.12-7.465-3.438-10.583-0.711   c-5.065,4.427-10.604,8.356-16.462,11.678C14.208,130.645,0,155.033,0,181.324c0,13.058,8.83,24.459,21.472,27.726   c33.396,8.63,68.34,14.113,104.046,16.024v22.938c-1.351-0.502-2.691-1.039-4.019-1.616c-3.8-1.65-8.217,0.091-9.868,3.89   c-1.65,3.799,0.091,8.217,3.89,9.868c3.273,1.422,6.612,2.647,9.996,3.688c0.639,9.882-3.881,59.018,16.767,120.325   c1.323,3.925,5.576,6.034,9.502,4.714c3.925-1.322,6.036-5.576,4.714-9.502c-19.446-57.735-15.46-104.371-15.982-112.207   c8.982,1.256,17.9,1.258,26.897,0c0.676,9.424-3.987,54.64,17.235,111.577c11.409,30.609,28.139,58.753,49.725,83.65   c4.585,5.289,4.29,13.32-0.673,18.283c-5.517,5.517-14.532,5.234-19.587-0.6c-18.035-20.813-33.129-44.029-44.861-69.002   c-1.76-3.749-6.226-5.361-9.977-3.599c-3.749,1.761-5.36,6.228-3.599,9.977c12.317,26.219,28.164,50.594,47.101,72.447   c10.709,12.359,29.827,13.087,41.53,1.384c10.502-10.502,11.118-27.508,1.4-38.716   C171.436,366.904,183.704,271.958,182.416,263.842z M140.519,251.99v-26.268c8.948,0.226,17.949,0.226,26.897,0v26.268   C158.516,253.47,149.418,253.47,140.519,251.99z"
   id="path2"
   style="fill:#ffffff" />
	<path
   d="M483.142,220.922c-29.545-16.752-35.028-46.737-35.342-47.388c-6.332-24.412-28.368-41.461-53.587-41.461   c-25.219,0-47.255,17.049-53.588,41.461c-0.461,0.956-5.237,30.318-35.342,47.388c-17.8,10.093-28.858,29.075-28.858,49.537   c0,10.677,7.22,20,17.557,22.671c25.239,6.522,51.034,10.524,76.957,12.025v18.328c-4.659-1.981-8.763,0.171-10.303,3.714   c-1.65,3.799,0.091,8.217,3.89,9.868c2.104,0.914,4.247,1.71,6.413,2.42c-0.09,4.603,0.411,15.031-1.302,29.841   c-0.476,4.115,2.474,7.836,6.588,8.312c4.121,0.479,7.836-2.474,8.312-6.588c1.756-15.179,1.344-25.821,1.402-28.31   c5.662,0.629,10.882,0.629,16.548,0c-0.295,3.203,2.092,43.723-17.175,90.23c-9.286,22.413-22,43.016-37.79,61.237   c-3.148,3.633-8.706,3.69-12.04,0.355c-3.053-3.053-3.236-7.992-0.417-11.244c19.502-22.494,33.679-48.25,42.137-76.552   c1.186-3.969-1.07-8.147-5.039-9.333c-3.971-1.188-8.147,1.07-9.333,5.039c-7.845,26.25-21,50.145-39.099,71.021   c-7.951,9.171-7.448,23.084,1.144,31.676c9.517,9.517,25.162,9.04,33.982-1.138c16.845-19.44,30.408-41.417,40.311-65.319   c21.35-51.531,17.963-95.199,18.318-99.226c2.165-0.71,4.308-1.506,6.413-2.42c3.799-1.651,5.541-6.068,3.89-9.868   c-1.508-3.471-5.568-5.727-10.303-3.714v-18.328c25.922-1.501,51.717-5.502,76.957-12.025C504.78,290.459,512,281.136,512,270.459   C512,249.997,500.942,231.015,483.142,220.922z M385.938,327.629v-21.843c5.509,0.112,11.04,0.112,16.548,0v21.843   C396.998,328.395,391.425,328.395,385.938,327.629z M490.689,278.608c-9.388,2.426-18.856,4.482-28.38,6.187v-12.312   c0-4.142-3.358-7.5-7.5-7.5s-7.5,3.358-7.5,7.5v14.691c-15.122,2.095-30.352,3.29-45.598,3.585v-13.745c0-4.142-3.358-7.5-7.5-7.5   s-7.5,3.358-7.5,7.5v13.745c-15.246-0.295-30.476-1.49-45.598-3.585v-14.692c0-4.142-3.358-7.5-7.5-7.5s-7.5,3.358-7.5,7.5v12.312   c-9.523-1.704-18.992-3.761-28.38-6.187c-3.715-0.96-6.311-4.312-6.311-8.149c0-15.073,8.145-29.054,21.256-36.488   c20.687-11.729,35.976-31.659,41.946-54.678l0.517-1.993c4.617-17.797,20.682-30.228,39.068-30.228s34.452,12.43,39.068,30.228v0   c0.418,0.862,6.559,36.314,42.464,56.671C488.855,241.405,497,255.387,497,270.459C497,274.297,494.405,277.648,490.689,278.608z"
   id="path4"
   style="fill:#ffffff" />
	<path
   d="M402.897,64.607h14.857c4.142,0,7.5-3.358,7.5-7.5s-3.358-7.5-7.5-7.5h-14.857c-4.142,0-7.5,3.358-7.5,7.5   S398.755,64.607,402.897,64.607z"
   id="path6"
   style="fill:#ffffff" />
	<path
   d="M358.04,64.607h14.857c4.142,0,7.5-3.358,7.5-7.5s-3.358-7.5-7.5-7.5H358.04c-4.142,0-7.5,3.358-7.5,7.5   S353.898,64.607,358.04,64.607z"
   id="path8"
   style="fill:#ffffff" />
	<path
   d="M387.897,64.607c-4.142,0-7.5,3.358-7.5,7.5v14.857c0,4.142,3.358,7.5,7.5,7.5s7.5-3.358,7.5-7.5V72.107   C395.397,67.965,392.04,64.607,387.897,64.607z"
   id="path10"
   style="fill:#ffffff" />
	<path
   d="M387.897,48.607c4.142,0,7.5-3.358,7.5-7.5V27.25c0-4.142-3.358-7.5-7.5-7.5s-7.5,3.358-7.5,7.5v13.857   C380.397,45.249,383.755,48.607,387.897,48.607z"
   id="path12"
   style="fill:#ffffff" />
	<path
   d="M303.537,104.464h10.771c4.142,0,7.5-3.358,7.5-7.5s-3.358-7.5-7.5-7.5h-10.771c-4.142,0-7.5,3.358-7.5,7.5   S299.395,104.464,303.537,104.464z"
   id="path14"
   style="fill:#ffffff" />
	<path
   d="M341.772,104.464h10.771c4.142,0,7.5-3.358,7.5-7.5s-3.358-7.5-7.5-7.5h-10.771c-4.142,0-7.5,3.358-7.5,7.5   S337.63,104.464,341.772,104.464z"
   id="path16"
   style="fill:#ffffff" />
	<path
   d="M328.04,103.196c-4.142,0-7.5,3.358-7.5,7.5v10.771c0,4.142,3.358,7.5,7.5,7.5s7.5-3.358,7.5-7.5v-10.771   C335.54,106.554,332.182,103.196,328.04,103.196z"
   id="path18"
   style="fill:#ffffff" />
	<path
   d="M328.04,89.95c4.142,0,7.5-3.358,7.5-7.5v-9.989c0-4.142-3.358-7.5-7.5-7.5s-7.5,3.358-7.5,7.5v9.989   C320.54,86.592,323.898,89.95,328.04,89.95z"
   id="path20"
   style="fill:#ffffff" />
</g>















</svg>
